<svg width="62" height="72" viewBox="0 0 62 72" fill="none" xmlns="http://www.w3.org/2000/svg">
<path d="M47.5001 2.4999C42.3928 -2.21454 40.5 1.50005 36 6.00001C19 23.9999 24.9645 24.9644 28.5 28.5C29 29 42.5 43.0001 42.5 43.0001C46.5 47.5001 45.3001 48.5 42.5001 52.5L32.5001 66.5C29.7001 73.3 34.0001 72.3333 36.5001 71C36.5001 71 59.5 52.5 61 48.5C62.5 44.5 44.4952 27.4099 44.5 27C43.3932 23.6796 49.0001 18.9999 54.5001 11.4999C55.2789 10.4378 54.0001 8.49992 47.5001 2.4999Z" fill="#E10000"/>
<path d="M16 30.5C9 29.5 2.80382 30 2.80382 30C0.803824 30.5 -2.09618 32.4 2.30382 36C2.30382 36 9.03764 39.6774 13 44C16.9624 48.3226 14.9342 50.5987 13 53.5C11.0658 56.4013 9.61049 57.3527 8 59.5C6.38951 61.6473 8.43431 64.0757 9 64.5C11 66 15 68 18.5 66C22 64 29 52.5 30 51C31.8939 48.1591 32 47 30 44C28 41 18 30.7857 16 30.5Z" fill="#E10000"/>
</svg>
