<svg width="83" height="93" viewBox="0 0 83 93" fill="none" xmlns="http://www.w3.org/2000/svg">
<path d="M5.5 73.26C5.79333 73.26 6.16 73.3 6.6 73.38C7.04 73.4467 7.39333 73.5267 7.66 73.62V75.96H6.74C6.31333 75.96 6.02 76.04 5.86 76.2C5.7 76.36 5.62 76.6333 5.62 77.02V77.44H7.66V80.14H5.62V88H1.64V80.14H0.16V77.44H1.64V77C1.64 75.64 1.97333 74.68 2.64 74.12C3.30667 73.5467 4.26 73.26 5.5 73.26ZM12.5014 77.2C14.4347 77.2 15.9081 77.6533 16.9214 78.56C17.9481 79.4667 18.4614 80.8533 18.4614 82.72V83.4H10.5414C10.5414 84.16 10.7081 84.7333 11.0414 85.12C11.3881 85.5067 11.9281 85.7 12.6614 85.7C13.3281 85.7 13.8147 85.56 14.1214 85.28C14.4414 85 14.6014 84.6267 14.6014 84.16H18.4614C18.4614 85.44 17.9747 86.44 17.0014 87.16C16.0281 87.88 14.6081 88.24 12.7414 88.24C10.7814 88.24 9.26141 87.7867 8.18141 86.88C7.10141 85.96 6.56141 84.5733 6.56141 82.72C6.56141 80.9067 7.08807 79.5333 8.14141 78.6C9.19474 77.6667 10.6481 77.2 12.5014 77.2ZM12.6614 79.74C11.4081 79.74 10.7081 80.3333 10.5614 81.52H14.4414C14.4414 80.9733 14.2814 80.54 13.9614 80.22C13.6547 79.9 13.2214 79.74 12.6614 79.74ZM18.9212 76.2V73.5H22.9012V76.2H18.9212ZM22.9012 88.58C22.9012 89.86 22.6079 90.78 22.0212 91.34C21.4479 91.9133 20.5212 92.2 19.2412 92.2C18.8946 92.2 18.4679 92.1667 17.9612 92.1C17.4546 92.0333 17.0546 91.9467 16.7612 91.84V89.46H17.8012C18.5479 89.46 18.9212 89.0333 18.9212 88.18V77.44H22.9012V88.58ZM29.3014 77.2C31.1547 77.2 32.6081 77.6733 33.6614 78.62C34.7281 79.5533 35.2614 80.92 35.2614 82.72C35.2614 84.52 34.7281 85.8933 33.6614 86.84C32.6081 87.7733 31.1547 88.24 29.3014 88.24C27.4481 88.24 25.9947 87.7733 24.9414 86.84C23.8881 85.9067 23.3614 84.5333 23.3614 82.72C23.3614 80.9067 23.8881 79.5333 24.9414 78.6C25.9947 77.6667 27.4481 77.2 29.3014 77.2ZM29.3014 79.9C27.9947 79.9 27.3414 80.6533 27.3414 82.16V83.3C27.3414 84.7933 27.9947 85.54 29.3014 85.54C30.6214 85.54 31.2814 84.7933 31.2814 83.3V82.16C31.2814 80.6533 30.6214 79.9 29.3014 79.9ZM39.5812 78.42C40.3412 77.6067 41.3279 77.2 42.5412 77.2C43.9679 77.2 45.0679 77.6667 45.8412 78.6C46.6146 79.52 47.0012 80.8867 47.0012 82.7C47.0012 84.5267 46.6146 85.9067 45.8412 86.84C45.0679 87.7733 43.9679 88.24 42.5412 88.24C41.0746 88.24 39.9546 87.66 39.1812 86.5L38.8412 88H35.6012V73.5H39.5812V78.42ZM41.3012 80.14C40.7146 80.14 40.2746 80.3533 39.9812 80.78C39.6879 81.1933 39.5412 81.7333 39.5412 82.4V83.06C39.5412 83.7267 39.6879 84.2667 39.9812 84.68C40.2746 85.0933 40.7146 85.3 41.3012 85.3C42.4479 85.3 43.0212 84.62 43.0212 83.26V82.2C43.0212 80.8267 42.4479 80.14 41.3012 80.14ZM52.5411 77.2C54.1544 77.2 55.4678 77.4733 56.4811 78.02C57.4944 78.5533 58.0011 79.4267 58.0011 80.64V84.76C58.0011 84.9867 58.0544 85.1733 58.1611 85.32C58.2678 85.4667 58.4278 85.54 58.6411 85.54H59.3611V87.84C59.3211 87.8667 59.2144 87.9133 59.0411 87.98C58.8811 88.0333 58.6478 88.0867 58.3411 88.14C58.0344 88.2067 57.6811 88.24 57.2811 88.24C56.5078 88.24 55.8678 88.1267 55.3611 87.9C54.8678 87.66 54.5278 87.3333 54.3411 86.92C53.8344 87.32 53.2678 87.64 52.6411 87.88C52.0144 88.12 51.2811 88.24 50.4411 88.24C47.9611 88.24 46.7211 87.2533 46.7211 85.28C46.7211 84.2533 46.9944 83.4733 47.5411 82.94C48.1011 82.3933 48.9011 82.02 49.9411 81.82C50.9811 81.62 52.3411 81.52 54.0211 81.52V81C54.0211 80.5867 53.8744 80.2733 53.5811 80.06C53.3011 79.8467 52.9344 79.74 52.4811 79.74C52.0678 79.74 51.7078 79.8133 51.4011 79.96C51.1078 80.1067 50.9611 80.34 50.9611 80.66V80.74H47.0411C47.0278 80.6733 47.0211 80.58 47.0211 80.46C47.0211 79.46 47.4944 78.6667 48.4411 78.08C49.4011 77.4933 50.7678 77.2 52.5411 77.2ZM54.0211 83.4C52.8878 83.4 52.0478 83.5267 51.5011 83.78C50.9678 84.02 50.7011 84.3467 50.7011 84.76C50.7011 85.4267 51.1544 85.76 52.0611 85.76C52.5811 85.76 53.0344 85.62 53.4211 85.34C53.8211 85.06 54.0211 84.7133 54.0211 84.3V83.4ZM64.5209 77.2C66.2543 77.2 67.6543 77.5733 68.7209 78.32C69.8009 79.0533 70.3409 80.18 70.3409 81.7H66.4809C66.4809 80.5 65.8276 79.9 64.5209 79.9C63.2143 79.9 62.5609 80.6533 62.5609 82.16V83.3C62.5609 84.7933 63.2409 85.54 64.6009 85.54C65.9609 85.54 66.6409 84.9267 66.6409 83.7H70.3409C70.3409 85.2333 69.8009 86.3733 68.7209 87.12C67.6543 87.8667 66.2543 88.24 64.5209 88.24C62.6676 88.24 61.2143 87.7733 60.1609 86.84C59.1076 85.9067 58.5809 84.5333 58.5809 82.72C58.5809 80.9067 59.1076 79.5333 60.1609 78.6C61.2143 77.6667 62.6676 77.2 64.5209 77.2ZM74.4488 78.54C74.8754 78.1133 75.3754 77.7867 75.9488 77.56C76.5221 77.32 77.1221 77.2 77.7488 77.2C78.9754 77.2 79.8954 77.54 80.5088 78.22C81.1221 78.9 81.4288 79.88 81.4288 81.16V88H77.4488V81.64C77.4488 81.1867 77.3288 80.8267 77.0888 80.56C76.8621 80.28 76.5354 80.14 76.1088 80.14C75.6154 80.14 75.2154 80.3 74.9088 80.62C74.6021 80.94 74.4488 81.3333 74.4488 81.8V88H70.4688V73.5H74.4488V78.54Z" fill="#E10000"/>
<path d="M57.5001 2.4999C52.3928 -2.21454 50.5 1.50005 46 6.00001C29 23.9999 34.9645 24.9644 38.5 28.5C39 29 52.5 43.0001 52.5 43.0001C56.5 47.5001 55.3001 48.5 52.5001 52.5L42.5001 66.5C39.7001 73.3 44.0001 72.3333 46.5001 71C46.5001 71 69.5 52.5 71 48.5C72.5 44.5 54.4952 27.4099 54.5 27C53.3932 23.6796 59.0001 18.9999 64.5001 11.4999C65.2789 10.4378 64.0001 8.49992 57.5001 2.4999Z" fill="#E10000"/>
<path d="M26 30.5C19 29.5 12.8038 30 12.8038 30C10.8038 30.5 7.90382 32.4 12.3038 36C12.3038 36 19.0376 39.6774 23 44C26.9624 48.3226 24.9342 50.5987 23 53.5C21.0658 56.4013 19.6105 57.3527 18 59.5C16.3895 61.6473 18.4343 64.0757 19 64.5C21 66 25 68 28.5 66C32 64 39 52.5 40 51C41.8939 48.1591 42 47 40 44C38 41 28 30.7857 26 30.5Z" fill="#E10000"/>
</svg>
