<svg width="208" height="44" viewBox="0 0 208 44" fill="none" xmlns="http://www.w3.org/2000/svg">
<path d="M53 5.52C53.5867 5.52 54.32 5.6 55.2 5.76C56.08 5.89333 56.7867 6.05333 57.32 6.24V10.92H55.48C54.6267 10.92 54.04 11.08 53.72 11.4C53.4 11.72 53.24 12.2667 53.24 13.04V13.88H57.32V19.28H53.24V35H45.28V19.28H42.32V13.88H45.28V13C45.28 10.28 45.9467 8.36 47.28 7.24C48.6133 6.09333 50.52 5.52 53 5.52ZM67.0028 13.4C70.8695 13.4 73.8161 14.3067 75.8428 16.12C77.8961 17.9333 78.9228 20.7067 78.9228 24.44V25.8H63.0828C63.0828 27.32 63.4161 28.4667 64.0828 29.24C64.7761 30.0133 65.8561 30.4 67.3228 30.4C68.6561 30.4 69.6295 30.12 70.2428 29.56C70.8828 29 71.2028 28.2533 71.2028 27.32H78.9228C78.9228 29.88 77.9495 31.88 76.0028 33.32C74.0561 34.76 71.2161 35.48 67.4828 35.48C63.5628 35.48 60.5228 34.5733 58.3628 32.76C56.2028 30.92 55.1228 28.1467 55.1228 24.44C55.1228 20.8133 56.1761 18.0667 58.2828 16.2C60.3895 14.3333 63.2961 13.4 67.0028 13.4ZM67.3228 18.48C64.8161 18.48 63.4161 19.6667 63.1228 22.04H70.8828C70.8828 20.9467 70.5628 20.08 69.9228 19.44C69.3095 18.8 68.4428 18.48 67.3228 18.48ZM79.8425 11.4V6H87.8025V11.4H79.8425ZM87.8025 36.16C87.8025 38.72 87.2158 40.56 86.0425 41.68C84.8958 42.8267 83.0425 43.4 80.4825 43.4C79.7892 43.4 78.9358 43.3333 77.9225 43.2C76.9092 43.0667 76.1092 42.8933 75.5225 42.68V37.92H77.6025C79.0958 37.92 79.8425 37.0667 79.8425 35.36V13.88H87.8025V36.16ZM100.603 13.4C104.309 13.4 107.216 14.3467 109.323 16.24C111.456 18.1067 112.523 20.84 112.523 24.44C112.523 28.04 111.456 30.7867 109.323 32.68C107.216 34.5467 104.309 35.48 100.603 35.48C96.8961 35.48 93.9895 34.5467 91.8828 32.68C89.7761 30.8133 88.7228 28.0667 88.7228 24.44C88.7228 20.8133 89.7761 18.0667 91.8828 16.2C93.9895 14.3333 96.8961 13.4 100.603 13.4ZM100.603 18.8C97.9895 18.8 96.6828 20.3067 96.6828 23.32V25.6C96.6828 28.5867 97.9895 30.08 100.603 30.08C103.243 30.08 104.563 28.5867 104.563 25.6V23.32C104.563 20.3067 103.243 18.8 100.603 18.8ZM121.162 15.84C122.682 14.2133 124.656 13.4 127.082 13.4C129.936 13.4 132.136 14.3333 133.682 16.2C135.229 18.04 136.002 20.7733 136.002 24.4C136.002 28.0533 135.229 30.8133 133.682 32.68C132.136 34.5467 129.936 35.48 127.082 35.48C124.149 35.48 121.909 34.32 120.362 32L119.682 35H113.202V6H121.162V15.84ZM124.602 19.28C123.429 19.28 122.549 19.7067 121.962 20.56C121.376 21.3867 121.082 22.4667 121.082 23.8V25.12C121.082 26.4533 121.376 27.5333 121.962 28.36C122.549 29.1867 123.429 29.6 124.602 29.6C126.896 29.6 128.042 28.24 128.042 25.52V23.4C128.042 20.6533 126.896 19.28 124.602 19.28ZM147.082 13.4C150.309 13.4 152.936 13.9467 154.962 15.04C156.989 16.1067 158.002 17.8533 158.002 20.28V28.52C158.002 28.9733 158.109 29.3467 158.322 29.64C158.536 29.9333 158.856 30.08 159.282 30.08H160.722V34.68C160.642 34.7333 160.429 34.8267 160.082 34.96C159.762 35.0667 159.296 35.1733 158.682 35.28C158.069 35.4133 157.362 35.48 156.562 35.48C155.016 35.48 153.736 35.2533 152.722 34.8C151.736 34.32 151.056 33.6667 150.682 32.84C149.669 33.64 148.536 34.28 147.282 34.76C146.029 35.24 144.562 35.48 142.882 35.48C137.922 35.48 135.442 33.5067 135.442 29.56C135.442 27.5067 135.989 25.9467 137.082 24.88C138.202 23.7867 139.802 23.04 141.882 22.64C143.962 22.24 146.682 22.04 150.042 22.04V21C150.042 20.1733 149.749 19.5467 149.162 19.12C148.602 18.6933 147.869 18.48 146.962 18.48C146.136 18.48 145.416 18.6267 144.802 18.92C144.216 19.2133 143.922 19.68 143.922 20.32V20.48H136.082C136.056 20.3467 136.042 20.16 136.042 19.92C136.042 17.92 136.989 16.3333 138.882 15.16C140.802 13.9867 143.536 13.4 147.082 13.4ZM150.042 25.8C147.776 25.8 146.096 26.0533 145.002 26.56C143.936 27.04 143.402 27.6933 143.402 28.52C143.402 29.8533 144.309 30.52 146.122 30.52C147.162 30.52 148.069 30.24 148.842 29.68C149.642 29.12 150.042 28.4267 150.042 27.6V25.8ZM171.042 13.4C174.509 13.4 177.309 14.1467 179.442 15.64C181.602 17.1067 182.682 19.36 182.682 22.4H174.962C174.962 20 173.655 18.8 171.042 18.8C168.429 18.8 167.122 20.3067 167.122 23.32V25.6C167.122 28.5867 168.482 30.08 171.202 30.08C173.922 30.08 175.282 28.8533 175.282 26.4H182.682C182.682 29.4667 181.602 31.7467 179.442 33.24C177.309 34.7333 174.509 35.48 171.042 35.48C167.335 35.48 164.429 34.5467 162.322 32.68C160.215 30.8133 159.162 28.0667 159.162 24.44C159.162 20.8133 160.215 18.0667 162.322 16.2C164.429 14.3333 167.335 13.4 171.042 13.4ZM190.898 16.08C191.751 15.2267 192.751 14.5733 193.898 14.12C195.044 13.64 196.244 13.4 197.498 13.4C199.951 13.4 201.791 14.08 203.018 15.44C204.244 16.8 204.858 18.76 204.858 21.32V35H196.898V22.28C196.898 21.3733 196.658 20.6533 196.178 20.12C195.724 19.56 195.071 19.28 194.218 19.28C193.231 19.28 192.431 19.6 191.818 20.24C191.204 20.88 190.898 21.6667 190.898 22.6V35H182.938V6H190.898V16.08Z" fill="#E10000"/>
<path d="M26.9469 3.2414C24.0495 0.566892 22.9757 2.67418 20.4229 5.22702C10.7787 15.4384 14.1624 15.9856 16.1681 17.9913C16.4518 18.275 24.1104 26.2172 24.1104 26.2172C26.3796 28.7701 25.6988 29.3373 24.1104 31.6065L18.4374 39.5488C16.8489 43.4064 19.2883 42.858 20.7066 42.1016C20.7066 42.1016 33.7545 31.6066 34.6054 29.3373C35.4564 27.0681 25.2422 17.3729 25.2449 17.1404C24.617 15.2567 27.7978 12.6019 30.918 8.34711C31.3598 7.7446 30.6343 6.64522 26.9469 3.2414Z" fill="#E10000"/>
<path d="M9.07683 19.1259C5.10572 18.5586 1.59062 18.8423 1.59062 18.8423C0.456011 19.1259 -1.18916 20.2038 1.30696 22.2461C1.30696 22.2461 5.12707 24.3323 7.37493 26.7845C9.62278 29.2367 8.4722 30.528 7.37493 32.1739C6.27765 33.8198 5.45205 34.3595 4.53842 35.5777C3.62478 36.7959 4.7848 38.1735 5.10572 38.4142C6.24032 39.2651 8.50953 40.3997 10.4951 39.2651C12.4806 38.1305 16.4518 31.6066 17.0191 30.7556C18.0935 29.144 18.1537 28.4864 17.0191 26.7845C15.8845 25.0826 10.2114 19.288 9.07683 19.1259Z" fill="#E10000"/>
</svg>
